{
	"asset":{
		"generator":"Khronos glTF Blender I/O v4.1.62",
		"version":"2.0"
	},
	"extensionsUsed":[
		"KHR_materials_specular"
	],
	"scene":0,
	"scenes":[
		{
			"name":"Scene",
			"nodes":[
				0,
				1,
				2,
				3,
				4
			]
		}
	],
	"nodes":[
		{
			"name":"Plane.010",
			"translation":[
				-0.04590955004096031,
				0.04391434043645859,
				0.17626768350601196
			]
		},
		{
			"name":"Plane.013",
			"translation":[
				-0.04590955004096031,
				0.04391434043645859,
				0.20037850737571716
			]
		},
		{
			"name":"Plane.014",
			"translation":[
				-0.04590955004096031,
				0.04391434043645859,
				0.2315993756055832
			]
		},
		{
			"mesh":0,
			"name":"Cube",
			"translation":[
				-0.06158553436398506,
				0.4531727135181427,
				0.2212040275335312
			]
		},
		{
			"mesh":1,
			"name":"Plane.012",
			"rotation":[
				0.7071068286895752,
				0,
				0,
				0.7071068286895752
			],
			"translation":[
				0.27785056829452515,
				0.044750411063432693,
				0.13548873364925385
			]
		}
	],
	"animations":[
		{
			"channels":[
				{
					"sampler":0,
					"target":{
						"node":3,
						"path":"translation"
					}
				}
			],
			"name":"CubeAction",
			"samplers":[
				{
					"input":12,
					"interpolation":"LINEAR",
					"output":13
				}
			]
		}
	],
	"materials":[
		{
			"doubleSided":true,
			"name":"marco negro",
			"pbrMetallicRoughness":{
				"baseColorFactor":[
					0.0013180224923416972,
					0.0013180224923416972,
					0.0013180224923416972,
					1
				],
				"roughnessFactor":0
			}
		},
		{
			"doubleSided":true,
			"extensions":{
				"KHR_materials_specular":{
					"specularColorFactor":[
						0.7189818806432697,
						0.7771658005555793,
						0.7771658005555793
					]
				}
			},
			"name":"pantalla",
			"pbrMetallicRoughness":{
				"baseColorFactor":[
					0,
					0,
					0,
					1
				],
				"metallicFactor":0.32608696818351746,
				"roughnessFactor":0.9130434989929199
			}
		}
	],
	"meshes":[
		{
			"name":"Cube",
			"primitives":[
				{
					"attributes":{
						"POSITION":0,
						"NORMAL":1,
						"TEXCOORD_0":2
					},
					"indices":3
				}
			]
		},
		{
			"name":"Plane.012",
			"primitives":[
				{
					"attributes":{
						"POSITION":4,
						"NORMAL":5,
						"TEXCOORD_0":6
					},
					"indices":7,
					"material":0
				},
				{
					"attributes":{
						"POSITION":8,
						"NORMAL":9,
						"TEXCOORD_0":10
					},
					"indices":11,
					"material":1
				}
			]
		}
	],
	"accessors":[
		{
			"bufferView":0,
			"componentType":5126,
			"count":24,
			"max":[
				-1.8249329328536987,
				1.065871238708496,
				0.3085208833217621
			],
			"min":[
				-2.0863332748413086,
				0.8044707179069519,
				0.04712042212486267
			],
			"type":"VEC3"
		},
		{
			"bufferView":1,
			"componentType":5126,
			"count":24,
			"type":"VEC3"
		},
		{
			"bufferView":2,
			"componentType":5126,
			"count":24,
			"type":"VEC2"
		},
		{
			"bufferView":3,
			"componentType":5123,
			"count":36,
			"type":"SCALAR"
		},
		{
			"bufferView":4,
			"componentType":5126,
			"count":200,
			"max":[
				2.601874351501465,
				0.014858927577733994,
				0.8540022969245911
			],
			"min":[
				-2.628361225128174,
				0,
				-0.8540084362030029
			],
			"type":"VEC3"
		},
		{
			"bufferView":5,
			"componentType":5126,
			"count":200,
			"type":"VEC3"
		},
		{
			"bufferView":6,
			"componentType":5126,
			"count":200,
			"type":"VEC2"
		},
		{
			"bufferView":7,
			"componentType":5123,
			"count":360,
			"type":"SCALAR"
		},
		{
			"bufferView":8,
			"componentType":5126,
			"count":20,
			"max":[
				2.5727767944335938,
				0,
				0.8249685168266296
			],
			"min":[
				-2.549285411834717,
				0,
				-0.8249622583389282
			],
			"type":"VEC3"
		},
		{
			"bufferView":9,
			"componentType":5126,
			"count":20,
			"type":"VEC3"
		},
		{
			"bufferView":10,
			"componentType":5126,
			"count":20,
			"type":"VEC2"
		},
		{
			"bufferView":11,
			"componentType":5123,
			"count":30,
			"type":"SCALAR"
		},
		{
			"bufferView":12,
			"componentType":5126,
			"count":161,
			"max":[
				6.666666666666667
			],
			"min":[
				0
			],
			"type":"SCALAR"
		},
		{
			"bufferView":13,
			"componentType":5126,
			"count":161,
			"type":"VEC3"
		}
	],
	"bufferViews":[
		{
			"buffer":0,
			"byteLength":288,
			"byteOffset":0,
			"target":34962
		},
		{
			"buffer":0,
			"byteLength":288,
			"byteOffset":288,
			"target":34962
		},
		{
			"buffer":0,
			"byteLength":192,
			"byteOffset":576,
			"target":34962
		},
		{
			"buffer":0,
			"byteLength":72,
			"byteOffset":768,
			"target":34963
		},
		{
			"buffer":0,
			"byteLength":2400,
			"byteOffset":840,
			"target":34962
		},
		{
			"buffer":0,
			"byteLength":2400,
			"byteOffset":3240,
			"target":34962
		},
		{
			"buffer":0,
			"byteLength":1600,
			"byteOffset":5640,
			"target":34962
		},
		{
			"buffer":0,
			"byteLength":720,
			"byteOffset":7240,
			"target":34963
		},
		{
			"buffer":0,
			"byteLength":240,
			"byteOffset":7960,
			"target":34962
		},
		{
			"buffer":0,
			"byteLength":240,
			"byteOffset":8200,
			"target":34962
		},
		{
			"buffer":0,
			"byteLength":160,
			"byteOffset":8440,
			"target":34962
		},
		{
			"buffer":0,
			"byteLength":60,
			"byteOffset":8600,
			"target":34963
		},
		{
			"buffer":0,
			"byteLength":644,
			"byteOffset":8660
		},
		{
			"buffer":0,
			"byteLength":1932,
			"byteOffset":9304
		}
	],
	"buffers":[
		{
			"byteLength":11236,
			"uri":"TL-2.bin"
		}
	]
}
